<svg width="800" height="800" viewBox="0 0 800 800" fill="none" xmlns="http://www.w3.org/2000/svg">
<g clip-path="url(#clip0_2079_17)">
<rect width="800" height="800" fill="black"/>
<path d="M650.277 490.576L541.548 301.207C536.562 292.504 524.276 285.383 514.245 285.383H446.364C430.586 285.383 424.117 274.196 431.988 260.524L469.213 195.86C472.167 190.728 472.161 184.41 469.196 179.284C466.232 174.157 460.759 171 454.837 171H360.14C350.109 171 337.796 178.105 332.777 186.789L148.767 505.159C143.748 513.843 143.744 528.055 148.759 536.741L196.107 618.742C203.995 632.405 216.933 632.421 224.856 618.778L261.852 555.071C269.775 541.429 282.713 541.445 290.601 555.107L324.142 613.197C329.156 621.883 341.468 628.989 351.498 628.989H570.32C580.351 628.989 592.661 621.883 597.677 613.197L650.222 522.194C655.238 513.507 655.262 499.28 650.277 490.576ZM503.438 481.462C511.277 495.153 504.782 506.354 489.005 506.354H318.798C303.02 506.354 296.565 495.176 304.454 481.513L389.624 334.008C397.513 320.345 410.421 320.346 418.309 334.009L503.438 481.462Z" fill="white"/>
</g>
<defs>
<clipPath id="clip0_2079_17">
<rect width="800" height="800" fill="white"/>
</clipPath>
</defs>
</svg>
